<svg xmlns="http://www.w3.org/2000/svg" width="1440" height="900"><path d="M735,498L798,578L869,556Z" fill="#a8c5bd" stroke="#a8c5bd" stroke-width="1.51"/><path d="M869,556L863,409L735,498Z" fill="#9ab7a7" stroke="#9ab7a7" stroke-width="1.51"/><path d="M869,556L915,545L863,409Z" fill="#acc9c5" stroke="#acc9c5" stroke-width="1.51"/><path d="M954,633L915,545L869,556Z" fill="#c0e0eb" stroke="#c0e0eb" stroke-width="1.51"/><path d="M915,545L954,501L863,409Z" fill="#a9c6c0" stroke="#a9c6c0" stroke-width="1.51"/><path d="M863,409L768,354L735,498Z" fill="#92ad92" stroke="#92ad92" stroke-width="1.51"/><path d="M735,498L638,595L798,578Z" fill="#9cb8a9" stroke="#9cb8a9" stroke-width="1.51"/><path d="M629,419L623,511L735,498Z" fill="#8fa98c" stroke="#8fa98c" stroke-width="1.51"/><path d="M768,354L629,419L735,498Z" fill="#849f7c" stroke="#849f7c" stroke-width="1.51"/><path d="M863,409L781,312L768,354Z" fill="#aac3ad" stroke="#aac3ad" stroke-width="1.51"/><path d="M900,329L781,312L863,409Z" fill="#b6d0bf" stroke="#b6d0bf" stroke-width="1.51"/><path d="M915,545L954,633L954,501Z" fill="#b9d8e1" stroke="#b9d8e1" stroke-width="1.51"/><path d="M899,722L954,633L869,556Z" fill="#adced9" stroke="#adced9" stroke-width="1.51"/><path d="M997,436L900,329L863,409Z" fill="#afcbc0" stroke="#afcbc0" stroke-width="1.51"/><path d="M954,501L997,436L863,409Z" fill="#98b5a8" stroke="#98b5a8" stroke-width="1.51"/><path d="M1075,411L997,436L1114,529Z" fill="#809e93" stroke="#809e93" stroke-width="1.51"/><path d="M623,511L638,595L735,498Z" fill="#a0bba9" stroke="#a0bba9" stroke-width="1.51"/><path d="M798,578L899,722L869,556Z" fill="#accbd0" stroke="#accbd0" stroke-width="1.51"/><path d="M638,595L690,660L798,578Z" fill="#95b2a6" stroke="#95b2a6" stroke-width="1.51"/><path d="M617,372L629,419L768,354Z" fill="#9ab493" stroke="#9ab493" stroke-width="1.51"/><path d="M623,511L565,592L638,595Z" fill="#b7d2c7" stroke="#b7d2c7" stroke-width="1.51"/><path d="M629,419L581,507L623,511Z" fill="#9ab598" stroke="#9ab598" stroke-width="1.51"/><path d="M690,660L735,722L798,578Z" fill="#8aa79e" stroke="#8aa79e" stroke-width="1.51"/><path d="M689,779L735,722L690,660Z" fill="#759085" stroke="#759085" stroke-width="1.51"/><path d="M629,419L455,427L581,507Z" fill="#9eb796" stroke="#9eb796" stroke-width="1.51"/><path d="M688,284L617,372L768,354Z" fill="#a5be9d" stroke="#a5be9d" stroke-width="1.51"/><path d="M735,722L899,722L798,578Z" fill="#90afaf" stroke="#90afaf" stroke-width="1.51"/><path d="M781,312L688,284L768,354Z" fill="#aac0a0" stroke="#aac0a0" stroke-width="1.51"/><path d="M793,184L688,284L781,312Z" fill="#b9c596" stroke="#b9c596" stroke-width="1.51"/><path d="M638,595L602,670L690,660Z" fill="#99b5ab" stroke="#99b5ab" stroke-width="1.51"/><path d="M581,507L565,592L623,511Z" fill="#b2ccbb" stroke="#b2ccbb" stroke-width="1.51"/><path d="M899,722L985,703L954,633Z" fill="#95b7c2" stroke="#95b7c2" stroke-width="1.51"/><path d="M1114,529L997,436L954,501Z" fill="#92afab" stroke="#92afab" stroke-width="1.51"/><path d="M735,722L774,765L899,722Z" fill="#7d9a98" stroke="#7d9a98" stroke-width="1.51"/><path d="M899,722L972,785L985,703Z" fill="#85a5b0" stroke="#85a5b0" stroke-width="1.51"/><path d="M689,779L774,765L735,722Z" fill="#6a857b" stroke="#6a857b" stroke-width="1.51"/><path d="M565,592L602,670L638,595Z" fill="#aac6bc" stroke="#aac6bc" stroke-width="1.51"/><path d="M900,329L859,187L781,312Z" fill="#cad8b9" stroke="#cad8b9" stroke-width="1.51"/><path d="M997,436L952,263L900,329Z" fill="#b9d4cb" stroke="#b9d4cb" stroke-width="1.51"/><path d="M997,436L1075,411L952,263Z" fill="#a3bfb5" stroke="#a3bfb5" stroke-width="1.51"/><path d="M1094,569L954,501L954,633Z" fill="#aeced9" stroke="#aeced9" stroke-width="1.51"/><path d="M774,765L831,779L899,722Z" fill="#7e9b9d" stroke="#7e9b9d" stroke-width="1.51"/><path d="M1110,671L1094,569L954,633Z" fill="#92b3bf" stroke="#92b3bf" stroke-width="1.51"/><path d="M1094,569L1114,529L954,501Z" fill="#98b7bb" stroke="#98b7bb" stroke-width="1.51"/><path d="M602,670L689,779L690,660Z" fill="#839f95" stroke="#839f95" stroke-width="1.51"/><path d="M774,765L823,861L831,779Z" fill="#6c8785" stroke="#6c8785" stroke-width="1.51"/><path d="M952,263L859,187L900,329Z" fill="#dae5c8" stroke="#dae5c8" stroke-width="1.51"/><path d="M859,187L793,184L781,312Z" fill="#cdd2a1" stroke="#cdd2a1" stroke-width="1.51"/><path d="M1110,671L1126,617L1094,569Z" fill="#88a9b4" stroke="#88a9b4" stroke-width="1.51"/><path d="M831,779L972,785L899,722Z" fill="#89a7b1" stroke="#89a7b1" stroke-width="1.51"/><path d="M823,861L972,785L831,779Z" fill="#769399" stroke="#769399" stroke-width="1.51"/><path d="M617,372L455,427L629,419Z" fill="#a9c2a2" stroke="#a9c2a2" stroke-width="1.51"/><path d="M581,507L481,561L565,592Z" fill="#c1dccf" stroke="#c1dccf" stroke-width="1.51"/><path d="M688,284L556,293L617,372Z" fill="#bad0ad" stroke="#bad0ad" stroke-width="1.51"/><path d="M610,207L556,293L688,284Z" fill="#c8d2a1" stroke="#c8d2a1" stroke-width="1.51"/><path d="M1110,671L954,633L985,703Z" fill="#8badb8" stroke="#8badb8" stroke-width="1.51"/><path d="M1094,569L1126,617L1114,529Z" fill="#97b8c3" stroke="#97b8c3" stroke-width="1.51"/><path d="M455,427L481,561L581,507Z" fill="#b6cbae" stroke="#b6cbae" stroke-width="1.51"/><path d="M565,592L453,732L602,670Z" fill="#a9c4bc" stroke="#a9c4bc" stroke-width="1.51"/><path d="M602,670L539,798L689,779Z" fill="#819b91" stroke="#819b91" stroke-width="1.51"/><path d="M1098,834L1110,671L985,703Z" fill="#6e8e99" stroke="#6e8e99" stroke-width="1.51"/><path d="M1075,411L1089,285L952,263Z" fill="#adc6bb" stroke="#adc6bb" stroke-width="1.51"/><path d="M952,263L1000,177L859,187Z" fill="#dfdfb6" stroke="#dfdfb6" stroke-width="1.51"/><path d="M1137,359L1089,285L1075,411Z" fill="#96b1a8" stroke="#96b1a8" stroke-width="1.51"/><path d="M1137,359L1075,411L1217,482Z" fill="#789489" stroke="#789489" stroke-width="1.51"/><path d="M1217,482L1075,411L1114,529Z" fill="#77938c" stroke="#77938c" stroke-width="1.51"/><path d="M635,178L610,207L688,284Z" fill="#cbce92" stroke="#cbce92" stroke-width="1.51"/><path d="M766,883L823,861L774,765Z" fill="#6f817f" stroke="#6f817f" stroke-width="1.51"/><path d="M556,293L455,427L617,372Z" fill="#bdd4b6" stroke="#bdd4b6" stroke-width="1.51"/><path d="M456,251L455,427L556,293Z" fill="#d4e2ba" stroke="#d4e2ba" stroke-width="1.51"/><path d="M793,184L635,178L688,284Z" fill="#bec182" stroke="#bec182" stroke-width="1.51"/><path d="M1089,285L1000,177L952,263Z" fill="#c6cead" stroke="#c6cead" stroke-width="1.51"/><path d="M859,187L767,106L793,184Z" fill="#c9ba8d" stroke="#c9ba8d" stroke-width="1.51"/><path d="M793,184L665,112L635,178Z" fill="#baac75" stroke="#baac75" stroke-width="1.51"/><path d="M689,779L766,883L774,765Z" fill="#5e776d" stroke="#5e776d" stroke-width="1.51"/><path d="M684,917L766,883L689,779Z" fill="#6d7770" stroke="#6d7770" stroke-width="1.51"/><path d="M455,427L425,477L481,561Z" fill="#bcc9a0" stroke="#bcc9a0" stroke-width="1.51"/><path d="M915,67L767,106L859,187Z" fill="#ccb190" stroke="#ccb190" stroke-width="1.51"/><path d="M453,732L539,798L602,670Z" fill="#95aea5" stroke="#95aea5" stroke-width="1.51"/><path d="M453,732L565,592L481,561Z" fill="#bcd1c1" stroke="#bcd1c1" stroke-width="1.51"/><path d="M1126,617L1217,482L1114,529Z" fill="#87a5ab" stroke="#87a5ab" stroke-width="1.51"/><path d="M1167,285L1110,224L1089,285Z" fill="#a9b69c" stroke="#a9b69c" stroke-width="1.51"/><path d="M1295,538L1217,482L1126,617Z" fill="#7c9a9f" stroke="#7c9a9f" stroke-width="1.51"/><path d="M1089,285L1110,224L1000,177Z" fill="#bdc3a0" stroke="#bdc3a0" stroke-width="1.51"/><path d="M1167,285L1089,285L1137,359Z" fill="#9cb2a5" stroke="#9cb2a5" stroke-width="1.51"/><path d="M1255,291L1167,285L1137,359Z" fill="#91a699" stroke="#91a699" stroke-width="1.51"/><path d="M1000,177L934,103L859,187Z" fill="#d9c7a7" stroke="#d9c7a7" stroke-width="1.51"/><path d="M1110,224L1026,144L1000,177Z" fill="#c3bb97" stroke="#c3bb97" stroke-width="1.51"/><path d="M1026,144L934,103L1000,177Z" fill="#cab598" stroke="#cab598" stroke-width="1.51"/><path d="M542,55L477,231L610,207Z" fill="#decf98" stroke="#decf98" stroke-width="1.51"/><path d="M610,207L477,231L556,293Z" fill="#dde2ac" stroke="#dde2ac" stroke-width="1.51"/><path d="M767,106L665,112L793,184Z" fill="#b6a170" stroke="#b6a170" stroke-width="1.51"/><path d="M425,477L410,610L481,561Z" fill="#d3debe" stroke="#d3debe" stroke-width="1.51"/><path d="M972,785L1098,834L985,703Z" fill="#6d8c96" stroke="#6d8c96" stroke-width="1.51"/><path d="M823,861L965,900L972,785Z" fill="#8697a5" stroke="#8697a5" stroke-width="1.51"/><path d="M847,972L965,900L823,861Z" fill="#a09caf" stroke="#a09caf" stroke-width="1.51"/><path d="M410,610L453,732L481,561Z" fill="#c3d0b8" stroke="#c3d0b8" stroke-width="1.51"/><path d="M542,55L610,207L635,178Z" fill="#cfbb88" stroke="#cfbb88" stroke-width="1.51"/><path d="M345,387L336,464L425,477Z" fill="#bdc081" stroke="#bdc081" stroke-width="1.51"/><path d="M766,883L847,972L823,861Z" fill="#908d98" stroke="#908d98" stroke-width="1.51"/><path d="M539,798L684,917L689,779Z" fill="#71837a" stroke="#71837a" stroke-width="1.51"/><path d="M541,916L684,917L539,798Z" fill="#8f928f" stroke="#8f928f" stroke-width="1.51"/><path d="M477,231L456,251L556,293Z" fill="#e2e4ac" stroke="#e2e4ac" stroke-width="1.51"/><path d="M965,900L1098,834L972,785Z" fill="#6f8391" stroke="#6f8391" stroke-width="1.51"/><path d="M1110,671L1220,677L1126,617Z" fill="#7595a0" stroke="#7595a0" stroke-width="1.51"/><path d="M1229,716L1220,677L1110,671Z" fill="#64838e" stroke="#64838e" stroke-width="1.51"/><path d="M453,732L514,830L539,798Z" fill="#8b9e8e" stroke="#8b9e8e" stroke-width="1.51"/><path d="M934,103L915,67L859,187Z" fill="#d8bca2" stroke="#d8bca2" stroke-width="1.51"/><path d="M767,106L638,41L665,112Z" fill="#af8d63" stroke="#af8d63" stroke-width="1.51"/><path d="M1002,23L915,67L934,103Z" fill="#caa393" stroke="#caa393" stroke-width="1.51"/><path d="M1110,224L1174,142L1026,144Z" fill="#b5aa88" stroke="#b5aa88" stroke-width="1.51"/><path d="M1002,23L896,6L915,67Z" fill="#cea59b" stroke="#cea59b" stroke-width="1.51"/><path d="M1167,285L1190,245L1110,224Z" fill="#a6af92" stroke="#a6af92" stroke-width="1.51"/><path d="M1255,291L1190,245L1167,285Z" fill="#97a38c" stroke="#97a38c" stroke-width="1.51"/><path d="M1220,677L1295,538L1126,617Z" fill="#77959f" stroke="#77959f" stroke-width="1.51"/><path d="M1161,837L1229,716L1110,671Z" fill="#597781" stroke="#597781" stroke-width="1.51"/><path d="M749,1034L847,972L766,883Z" fill="#98929b" stroke="#98929b" stroke-width="1.51"/><path d="M965,900L1118,876L1098,834Z" fill="#737d8e" stroke="#737d8e" stroke-width="1.51"/><path d="M425,477L336,464L410,610Z" fill="#cfd4a5" stroke="#cfd4a5" stroke-width="1.51"/><path d="M410,610L336,686L453,732Z" fill="#bdc4a3" stroke="#bdc4a3" stroke-width="1.51"/><path d="M345,387L425,477L455,427Z" fill="#bcc38c" stroke="#bcc38c" stroke-width="1.51"/><path d="M456,251L345,387L455,427Z" fill="#d4dba7" stroke="#d4dba7" stroke-width="1.51"/><path d="M1098,834L1161,837L1110,671Z" fill="#56747e" stroke="#56747e" stroke-width="1.51"/><path d="M983,999L1118,876L965,900Z" fill="#918aa3" stroke="#918aa3" stroke-width="1.51"/><path d="M1321,577L1295,538L1220,677Z" fill="#76909a" stroke="#76909a" stroke-width="1.51"/><path d="M1313,355L1255,291L1137,359Z" fill="#819990" stroke="#819990" stroke-width="1.51"/><path d="M1118,876L1161,837L1098,834Z" fill="#5d6e7c" stroke="#5d6e7c" stroke-width="1.51"/><path d="M1313,355L1137,359L1217,482Z" fill="#6f897d" stroke="#6f897d" stroke-width="1.51"/><path d="M665,112L542,55L635,178Z" fill="#c6a97a" stroke="#c6a97a" stroke-width="1.51"/><path d="M348,218L323,343L456,251Z" fill="#f0e79b" stroke="#f0e79b" stroke-width="1.51"/><path d="M782,3L638,41L767,106Z" fill="#ad8966" stroke="#ad8966" stroke-width="1.51"/><path d="M514,830L541,916L539,798Z" fill="#8e9992" stroke="#8e9992" stroke-width="1.51"/><path d="M684,917L749,1034L766,883Z" fill="#8c8286" stroke="#8c8286" stroke-width="1.51"/><path d="M464,937L541,916L514,830Z" fill="#a59e9a" stroke="#a59e9a" stroke-width="1.51"/><path d="M915,67L782,3L767,106Z" fill="#c29c83" stroke="#c29c83" stroke-width="1.51"/><path d="M915,67L896,6L782,3Z" fill="#cea597" stroke="#cea597" stroke-width="1.51"/><path d="M1002,23L934,103L1026,144Z" fill="#c19d89" stroke="#c19d89" stroke-width="1.51"/><path d="M1174,142L1110,224L1190,245Z" fill="#aeae86" stroke="#aeae86" stroke-width="1.51"/><path d="M1317,218L1174,142L1190,245Z" fill="#a09e76" stroke="#a09e76" stroke-width="1.51"/><path d="M377,888L464,937L514,830Z" fill="#aa9e90" stroke="#aa9e90" stroke-width="1.51"/><path d="M265,614L336,686L410,610Z" fill="#cfcba5" stroke="#cfcba5" stroke-width="1.51"/><path d="M1295,538L1332,508L1217,482Z" fill="#6e8484" stroke="#6e8484" stroke-width="1.51"/><path d="M1348,723L1321,577L1220,677Z" fill="#697e8b" stroke="#697e8b" stroke-width="1.51"/><path d="M1348,723L1220,677L1229,716Z" fill="#526f78" stroke="#526f78" stroke-width="1.51"/><path d="M1174,142L1002,23L1026,144Z" fill="#b1927d" stroke="#b1927d" stroke-width="1.51"/><path d="M336,464L265,614L410,610Z" fill="#e2deb5" stroke="#e2deb5" stroke-width="1.51"/><path d="M345,387L308,386L336,464Z" fill="#c6c284" stroke="#c6c284" stroke-width="1.51"/><path d="M456,251L323,343L345,387Z" fill="#e5e5a8" stroke="#e5e5a8" stroke-width="1.51"/><path d="M348,218L456,251L477,231Z" fill="#f1e79a" stroke="#f1e79a" stroke-width="1.51"/><path d="M323,343L308,386L345,387Z" fill="#d4cd91" stroke="#d4cd91" stroke-width="1.51"/><path d="M1321,577L1332,508L1295,538Z" fill="#819199" stroke="#819199" stroke-width="1.51"/><path d="M1332,508L1313,355L1217,482Z" fill="#5f7369" stroke="#5f7369" stroke-width="1.51"/><path d="M1255,291L1317,218L1190,245Z" fill="#929a7c" stroke="#929a7c" stroke-width="1.51"/><path d="M638,41L542,55L665,112Z" fill="#c29c76" stroke="#c29c76" stroke-width="1.51"/><path d="M572,0L542,55L638,41Z" fill="#cba283" stroke="#cba283" stroke-width="1.51"/><path d="M1118,876L1220,878L1161,837Z" fill="#5c6776" stroke="#5c6776" stroke-width="1.51"/><path d="M847,972L983,999L965,900Z" fill="#a9a3bb" stroke="#a9a3bb" stroke-width="1.51"/><path d="M917,1118L983,999L847,972Z" fill="#aeb8cc" stroke="#aeb8cc" stroke-width="1.51"/><path d="M709,1050L749,1034L684,917Z" fill="#8d8e8d" stroke="#8d8e8d" stroke-width="1.51"/><path d="M541,916L594,992L684,917Z" fill="#a2969a" stroke="#a2969a" stroke-width="1.51"/><path d="M505,984L594,992L541,916Z" fill="#b0a7ab" stroke="#b0a7ab" stroke-width="1.51"/><path d="M386,91L348,218L477,231Z" fill="#f4db87" stroke="#f4db87" stroke-width="1.51"/><path d="M193,322L226,497L308,386Z" fill="#c1aa78" stroke="#c1aa78" stroke-width="1.51"/><path d="M542,55L490,61L477,231Z" fill="#dcba86" stroke="#dcba86" stroke-width="1.51"/><path d="M506,-8L490,61L542,55Z" fill="#d8ac89" stroke="#d8ac89" stroke-width="1.51"/><path d="M1161,837L1302,780L1229,716Z" fill="#445f69" stroke="#445f69" stroke-width="1.51"/><path d="M1159,964L1220,878L1118,876Z" fill="#6d6b80" stroke="#6d6b80" stroke-width="1.51"/><path d="M629,-58L572,0L638,41Z" fill="#c69c83" stroke="#c69c83" stroke-width="1.51"/><path d="M363,846L514,830L453,732Z" fill="#909a80" stroke="#909a80" stroke-width="1.51"/><path d="M749,1034L917,1118L847,972Z" fill="#a5b0ba" stroke="#a5b0ba" stroke-width="1.51"/><path d="M594,992L709,1050L684,917Z" fill="#989595" stroke="#989595" stroke-width="1.51"/><path d="M680,1062L709,1050L594,992Z" fill="#99a19e" stroke="#99a19e" stroke-width="1.51"/><path d="M226,497L265,614L336,464Z" fill="#cfbe95" stroke="#cfbe95" stroke-width="1.51"/><path d="M313,791L363,846L453,732Z" fill="#9e9f7b" stroke="#9e9f7b" stroke-width="1.51"/><path d="M1220,878L1302,780L1161,837Z" fill="#445862" stroke="#445862" stroke-width="1.51"/><path d="M1321,577L1390,565L1332,508Z" fill="#8c96a2" stroke="#8c96a2" stroke-width="1.51"/><path d="M313,791L453,732L336,686Z" fill="#afb18b" stroke="#afb18b" stroke-width="1.51"/><path d="M896,6L923,-56L782,3Z" fill="#d0a59f" stroke="#d0a59f" stroke-width="1.51"/><path d="M782,3L629,-58L638,41Z" fill="#b68e74" stroke="#b68e74" stroke-width="1.51"/><path d="M1002,23L923,-56L896,6Z" fill="#cfa5a2" stroke="#cfa5a2" stroke-width="1.51"/><path d="M1036,-28L923,-56L1002,23Z" fill="#c59b9a" stroke="#c59b9a" stroke-width="1.51"/><path d="M464,937L505,984L541,916Z" fill="#b7a5a5" stroke="#b7a5a5" stroke-width="1.51"/><path d="M363,1011L505,984L464,937Z" fill="#c1aea2" stroke="#c1aea2" stroke-width="1.51"/><path d="M1150,-37L1036,-28L1002,23Z" fill="#b48c8a" stroke="#b48c8a" stroke-width="1.51"/><path d="M765,1144L917,1118L749,1034Z" fill="#9faeb3" stroke="#9faeb3" stroke-width="1.51"/><path d="M543,1083L680,1062L594,992Z" fill="#a6afac" stroke="#a6afac" stroke-width="1.51"/><path d="M983,999L1159,964L1118,876Z" fill="#888099" stroke="#888099" stroke-width="1.51"/><path d="M1329,886L1346,759L1302,780Z" fill="#485561" stroke="#485561" stroke-width="1.51"/><path d="M1120,1049L1159,964L983,999Z" fill="#898ea4" stroke="#898ea4" stroke-width="1.51"/><path d="M256,704L313,791L336,686Z" fill="#aea382" stroke="#aea382" stroke-width="1.51"/><path d="M1174,142L1150,-37L1002,23Z" fill="#a88278" stroke="#a88278" stroke-width="1.51"/><path d="M1313,355L1317,218L1255,291Z" fill="#919887" stroke="#919887" stroke-width="1.51"/><path d="M1398,334L1317,218L1313,355Z" fill="#9a9b92" stroke="#9a9b92" stroke-width="1.51"/><path d="M1346,759L1348,723L1302,780Z" fill="#586473" stroke="#586473" stroke-width="1.51"/><path d="M1302,780L1348,723L1229,716Z" fill="#516672" stroke="#516672" stroke-width="1.51"/><path d="M1332,508L1411,423L1313,355Z" fill="#777d79" stroke="#777d79" stroke-width="1.51"/><path d="M1348,723L1390,565L1321,577Z" fill="#848d9f" stroke="#848d9f" stroke-width="1.51"/><path d="M255,886L377,888L363,846Z" fill="#af977a" stroke="#af977a" stroke-width="1.51"/><path d="M363,846L377,888L514,830Z" fill="#a29c83" stroke="#a29c83" stroke-width="1.51"/><path d="M308,386L226,497L336,464Z" fill="#b6aa71" stroke="#b6aa71" stroke-width="1.51"/><path d="M265,614L256,704L336,686Z" fill="#bfb192" stroke="#bfb192" stroke-width="1.51"/><path d="M261,281L308,386L323,343Z" fill="#ded098" stroke="#ded098" stroke-width="1.51"/><path d="M742,-99L629,-58L782,3Z" fill="#b18a74" stroke="#b18a74" stroke-width="1.51"/><path d="M373,-27L386,91L490,61Z" fill="#e3ae78" stroke="#e3ae78" stroke-width="1.51"/><path d="M1348,723L1445,725L1390,565Z" fill="#808197" stroke="#808197" stroke-width="1.51"/><path d="M1329,886L1302,780L1220,878Z" fill="#4a5461" stroke="#4a5461" stroke-width="1.51"/><path d="M348,218L261,281L323,343Z" fill="#ebd991" stroke="#ebd991" stroke-width="1.51"/><path d="M490,61L386,91L477,231Z" fill="#e5c081" stroke="#e5c081" stroke-width="1.51"/><path d="M506,-8L542,55L572,0Z" fill="#d6ab90" stroke="#d6ab90" stroke-width="1.51"/><path d="M127,674L256,704L265,614Z" fill="#b99d85" stroke="#b99d85" stroke-width="1.51"/><path d="M258,210L261,281L348,218Z" fill="#f2d382" stroke="#f2d382" stroke-width="1.51"/><path d="M565,-113L506,-8L572,0Z" fill="#d7aa97" stroke="#d7aa97" stroke-width="1.51"/><path d="M226,497L214,563L265,614Z" fill="#d6bb9e" stroke="#d6bb9e" stroke-width="1.51"/><path d="M140,547L214,563L226,497Z" fill="#c9a78b" stroke="#c9a78b" stroke-width="1.51"/><path d="M1450,459L1411,423L1332,508Z" fill="#817f7f" stroke="#817f7f" stroke-width="1.51"/><path d="M1317,218L1254,89L1174,142Z" fill="#948264" stroke="#948264" stroke-width="1.51"/><path d="M892,-144L742,-99L782,3Z" fill="#c9a196" stroke="#c9a196" stroke-width="1.51"/><path d="M1411,423L1398,334L1313,355Z" fill="#90908f" stroke="#90908f" stroke-width="1.51"/><path d="M1317,218L1347,188L1254,89Z" fill="#9e886b" stroke="#9e886b" stroke-width="1.51"/><path d="M1398,334L1347,188L1317,218Z" fill="#aa9e87" stroke="#aa9e87" stroke-width="1.51"/><path d="M1398,334L1437,192L1347,188Z" fill="#b7a18c" stroke="#b7a18c" stroke-width="1.51"/><path d="M1411,423L1434,428L1398,334Z" fill="#938b8d" stroke="#938b8d" stroke-width="1.51"/><path d="M1450,459L1434,428L1411,423Z" fill="#8a8083" stroke="#8a8083" stroke-width="1.51"/><path d="M1450,459L1332,508L1390,565Z" fill="#8d8c95" stroke="#8d8c95" stroke-width="1.51"/><path d="M765,1144L749,1034L709,1050Z" fill="#929f9b" stroke="#929f9b" stroke-width="1.51"/><path d="M261,281L193,322L308,386Z" fill="#dbc492" stroke="#dbc492" stroke-width="1.51"/><path d="M244,87L258,210L348,218Z" fill="#efc06f" stroke="#efc06f" stroke-width="1.51"/><path d="M1159,964L1270,940L1220,878Z" fill="#6c637a" stroke="#6c637a" stroke-width="1.51"/><path d="M1099,1080L1120,1049L983,999Z" fill="#8e9cae" stroke="#8e9cae" stroke-width="1.51"/><path d="M917,1118L964,1111L983,999Z" fill="#a6b6c8" stroke="#a6b6c8" stroke-width="1.51"/><path d="M1283,997L1270,940L1159,964Z" fill="#6c677c" stroke="#6c677c" stroke-width="1.51"/><path d="M1036,-28L892,-144L923,-56Z" fill="#d4aaac" stroke="#d4aaac" stroke-width="1.51"/><path d="M923,-56L892,-144L782,3Z" fill="#d5aba7" stroke="#d5aba7" stroke-width="1.51"/><path d="M1254,89L1150,-37L1174,142Z" fill="#967162" stroke="#967162" stroke-width="1.51"/><path d="M1235,-17L1150,-37L1254,89Z" fill="#946d67" stroke="#946d67" stroke-width="1.51"/><path d="M1509,318L1437,192L1398,334Z" fill="#bca39e" stroke="#bca39e" stroke-width="1.51"/><path d="M1498,642L1450,459L1390,565Z" fill="#aa9eb5" stroke="#aa9eb5" stroke-width="1.51"/><path d="M505,984L543,1083L594,992Z" fill="#b2b5b5" stroke="#b2b5b5" stroke-width="1.51"/><path d="M680,1062L765,1144L709,1050Z" fill="#8e9b95" stroke="#8e9b95" stroke-width="1.51"/><path d="M424,1090L543,1083L505,984Z" fill="#bdc0b6" stroke="#bdc0b6" stroke-width="1.51"/><path d="M1346,759L1445,725L1348,723Z" fill="#6a6d80" stroke="#6a6d80" stroke-width="1.51"/><path d="M1270,940L1329,886L1220,878Z" fill="#5c586b" stroke="#5c586b" stroke-width="1.51"/><path d="M543,1083L765,1144L680,1062Z" fill="#9aa6a1" stroke="#9aa6a1" stroke-width="1.51"/><path d="M917,1118L1173,1151L964,1111Z" fill="#99a9bb" stroke="#99a9bb" stroke-width="1.51"/><path d="M1120,1049L1283,997L1159,964Z" fill="#767a8e" stroke="#767a8e" stroke-width="1.51"/><path d="M964,1111L1099,1080L983,999Z" fill="#99aabb" stroke="#99aabb" stroke-width="1.51"/><path d="M188,215L193,322L261,281Z" fill="#e2ba7d" stroke="#e2ba7d" stroke-width="1.51"/><path d="M1107,-82L892,-144L1036,-28Z" fill="#c79fa1" stroke="#c79fa1" stroke-width="1.51"/><path d="M1150,-37L1107,-82L1036,-28Z" fill="#b08789" stroke="#b08789" stroke-width="1.51"/><path d="M506,-8L373,-27L490,61Z" fill="#e1ad85" stroke="#e1ad85" stroke-width="1.51"/><path d="M244,87L188,215L258,210Z" fill="#e7af65" stroke="#e7af65" stroke-width="1.51"/><path d="M629,-58L565,-113L572,0Z" fill="#d0a591" stroke="#d0a591" stroke-width="1.51"/><path d="M742,-99L565,-113L629,-58Z" fill="#c7a08b" stroke="#c7a08b" stroke-width="1.51"/><path d="M892,-144L565,-113L742,-99Z" fill="#bc9985" stroke="#bc9985" stroke-width="1.51"/><path d="M1150,-37L1170,-69L1107,-82Z" fill="#a88082" stroke="#a88082" stroke-width="1.51"/><path d="M1405,-34L1235,-17L1254,89Z" fill="#926462" stroke="#926462" stroke-width="1.51"/><path d="M1515,826L1445,725L1346,759Z" fill="#70667d" stroke="#70667d" stroke-width="1.51"/><path d="M1235,-17L1170,-69L1150,-37Z" fill="#9c7476" stroke="#9c7476" stroke-width="1.51"/><path d="M1107,-82L1277,-127L892,-144Z" fill="#b99497" stroke="#b99497" stroke-width="1.51"/><path d="M214,563L127,674L265,614Z" fill="#c7a790" stroke="#c7a790" stroke-width="1.51"/><path d="M256,704L255,886L313,791Z" fill="#978668" stroke="#978668" stroke-width="1.51"/><path d="M313,791L255,886L363,846Z" fill="#a08d6f" stroke="#a08d6f" stroke-width="1.51"/><path d="M123,381L140,547L226,497Z" fill="#b28f6a" stroke="#b28f6a" stroke-width="1.51"/><path d="M377,888L363,1011L464,937Z" fill="#c6a795" stroke="#c6a795" stroke-width="1.51"/><path d="M121,841L255,886L256,704Z" fill="#8b6e58" stroke="#8b6e58" stroke-width="1.51"/><path d="M255,886L363,1011L377,888Z" fill="#c69c87" stroke="#c69c87" stroke-width="1.51"/><path d="M1286,1082L1283,997L1120,1049Z" fill="#6f7a8b" stroke="#6f7a8b" stroke-width="1.51"/><path d="M1270,940L1283,997L1329,886Z" fill="#6e5e77" stroke="#6e5e77" stroke-width="1.51"/><path d="M1329,886L1515,826L1346,759Z" fill="#5e586d" stroke="#5e586d" stroke-width="1.51"/><path d="M258,210L188,215L261,281Z" fill="#ebc277" stroke="#ebc277" stroke-width="1.51"/><path d="M193,322L123,381L226,497Z" fill="#ba976e" stroke="#ba976e" stroke-width="1.51"/><path d="M244,87L348,218L386,91Z" fill="#ecbb6c" stroke="#ecbb6c" stroke-width="1.51"/><path d="M485,-134L373,-27L506,-8Z" fill="#e7b190" stroke="#e7b190" stroke-width="1.51"/><path d="M1347,188L1417,74L1254,89Z" fill="#9f7464" stroke="#9f7464" stroke-width="1.51"/><path d="M1509,318L1398,334L1434,428Z" fill="#a7989e" stroke="#a7989e" stroke-width="1.51"/><path d="M1589,709L1498,642L1445,725Z" fill="#8989a0" stroke="#8989a0" stroke-width="1.51"/><path d="M1445,725L1498,642L1390,565Z" fill="#978da7" stroke="#978da7" stroke-width="1.51"/><path d="M1560,423L1509,318L1434,428Z" fill="#9e989a" stroke="#9e989a" stroke-width="1.51"/><path d="M89,369L123,381L193,322Z" fill="#caa37e" stroke="#caa37e" stroke-width="1.51"/><path d="M242,31L244,87L386,91Z" fill="#df9a5e" stroke="#df9a5e" stroke-width="1.51"/><path d="M363,1011L424,1090L505,984Z" fill="#c6bba8" stroke="#c6bba8" stroke-width="1.51"/><path d="M543,1083L424,1090L765,1144Z" fill="#acb7b4" stroke="#acb7b4" stroke-width="1.51"/><path d="M374,1069L424,1090L363,1011Z" fill="#cdc3a6" stroke="#cdc3a6" stroke-width="1.51"/><path d="M140,547L127,674L214,563Z" fill="#cca594" stroke="#cca594" stroke-width="1.51"/><path d="M30,564L127,674L140,547Z" fill="#cea59b" stroke="#cea59b" stroke-width="1.51"/><path d="M373,-27L242,31L386,91Z" fill="#e8a86c" stroke="#e8a86c" stroke-width="1.51"/><path d="M565,-113L485,-134L506,-8Z" fill="#e2b59f" stroke="#e2b59f" stroke-width="1.51"/><path d="M892,-144L485,-134L565,-113Z" fill="#cca692" stroke="#cca692" stroke-width="1.51"/><path d="M261,1083L374,1069L363,1011Z" fill="#cfbc9d" stroke="#cfbc9d" stroke-width="1.51"/><path d="M1560,423L1434,428L1450,459Z" fill="#8e8788" stroke="#8e8788" stroke-width="1.51"/><path d="M123,381L64,512L140,547Z" fill="#b59073" stroke="#b59073" stroke-width="1.51"/><path d="M34,297L89,369L193,322Z" fill="#d5ab8b" stroke="#d5ab8b" stroke-width="1.51"/><path d="M34,297L193,322L188,215Z" fill="#ddad7c" stroke="#ddad7c" stroke-width="1.51"/><path d="M485,-134L336,-62L373,-27Z" fill="#f0b68a" stroke="#f0b68a" stroke-width="1.51"/><path d="M1437,192L1417,74L1347,188Z" fill="#b48876" stroke="#b48876" stroke-width="1.51"/><path d="M1235,-17L1277,-127L1170,-69Z" fill="#977072" stroke="#977072" stroke-width="1.51"/><path d="M1543,172L1417,74L1437,192Z" fill="#c18b7e" stroke="#c18b7e" stroke-width="1.51"/><path d="M89,105L72,188L188,215Z" fill="#e29c63" stroke="#e29c63" stroke-width="1.51"/><path d="M336,-62L242,31L373,-27Z" fill="#e8a272" stroke="#e8a272" stroke-width="1.51"/><path d="M765,1144L1173,1151L917,1118Z" fill="#a7b7c8" stroke="#a7b7c8" stroke-width="1.51"/><path d="M964,1111L1173,1151L1099,1080Z" fill="#8c9dae" stroke="#8c9dae" stroke-width="1.51"/><path d="M1099,1080L1173,1151L1120,1049Z" fill="#8292a3" stroke="#8292a3" stroke-width="1.51"/><path d="M1173,1151L1286,1082L1120,1049Z" fill="#768595" stroke="#768595" stroke-width="1.51"/><path d="M1504,912L1515,826L1329,886Z" fill="#7d5f80" stroke="#7d5f80" stroke-width="1.51"/><path d="M89,369L64,512L123,381Z" fill="#b6906f" stroke="#b6906f" stroke-width="1.51"/><path d="M9,671L97,723L127,674Z" fill="#af8981" stroke="#af8981" stroke-width="1.51"/><path d="M127,674L97,723L256,704Z" fill="#a98575" stroke="#a98575" stroke-width="1.51"/><path d="M255,886L235,981L363,1011Z" fill="#c49483" stroke="#c49483" stroke-width="1.51"/><path d="M1509,318L1564,273L1437,192Z" fill="#c2ad9f" stroke="#c2ad9f" stroke-width="1.51"/><path d="M1587,466L1560,423L1450,459Z" fill="#8b8b8a" stroke="#8b8b8a" stroke-width="1.51"/><path d="M199,940L235,981L255,886Z" fill="#bb7d76" stroke="#bb7d76" stroke-width="1.51"/><path d="M121,841L199,940L255,886Z" fill="#a56e64" stroke="#a56e64" stroke-width="1.51"/><path d="M9,671L96,779L97,723Z" fill="#a57e78" stroke="#a57e78" stroke-width="1.51"/><path d="M97,723L96,779L256,704Z" fill="#9e7b6b" stroke="#9e7b6b" stroke-width="1.51"/><path d="M96,779L121,841L256,704Z" fill="#926e5e" stroke="#926e5e" stroke-width="1.51"/><path d="M1409,1033L1329,886L1283,997Z" fill="#7b6783" stroke="#7b6783" stroke-width="1.51"/><path d="M1498,642L1587,466L1450,459Z" fill="#a19eac" stroke="#a19eac" stroke-width="1.51"/><path d="M336,-62L314,-91L242,31Z" fill="#e89c72" stroke="#e89c72" stroke-width="1.51"/><path d="M485,-134L314,-91L336,-62Z" fill="#f5b98b" stroke="#f5b98b" stroke-width="1.51"/><path d="M1649,317L1564,273L1509,318Z" fill="#bbb7b1" stroke="#bbb7b1" stroke-width="1.51"/><path d="M1596,615L1587,466L1498,642Z" fill="#b0b5ca" stroke="#b0b5ca" stroke-width="1.51"/><path d="M1405,-34L1277,-127L1235,-17Z" fill="#99696e" stroke="#99696e" stroke-width="1.51"/><path d="M1170,-69L1277,-127L1107,-82Z" fill="#a37c7f" stroke="#a37c7f" stroke-width="1.51"/><path d="M1649,317L1509,318L1560,423Z" fill="#acafaf" stroke="#acafaf" stroke-width="1.51"/><path d="M1417,74L1405,-34L1254,89Z" fill="#a06865" stroke="#a06865" stroke-width="1.51"/><path d="M64,512L30,564L140,547Z" fill="#cca395" stroke="#cca395" stroke-width="1.51"/><path d="M8,471L30,564L64,512Z" fill="#c59c8d" stroke="#c59c8d" stroke-width="1.51"/><path d="M1589,709L1596,615L1498,642Z" fill="#969cb0" stroke="#969cb0" stroke-width="1.51"/><path d="M1436,-50L1405,-34L1417,74Z" fill="#b16a76" stroke="#b16a76" stroke-width="1.51"/><path d="M1414,1141L1409,1033L1286,1082Z" fill="#867d96" stroke="#867d96" stroke-width="1.51"/><path d="M1286,1082L1409,1033L1283,997Z" fill="#7a768c" stroke="#7a768c" stroke-width="1.51"/><path d="M1564,273L1543,172L1437,192Z" fill="#cdb096" stroke="#cdb096" stroke-width="1.51"/><path d="M374,1069L261,1083L424,1090Z" fill="#d2c2a0" stroke="#d2c2a0" stroke-width="1.51"/><path d="M424,1090L21,1142L765,1144Z" fill="#cbc3a9" stroke="#cbc3a9" stroke-width="1.51"/><path d="M235,981L261,1083L363,1011Z" fill="#c8a58e" stroke="#c8a58e" stroke-width="1.51"/><path d="M190,1040L261,1083L235,981Z" fill="#c29686" stroke="#c29686" stroke-width="1.51"/><path d="M190,1040L235,981L199,940Z" fill="#bc837a" stroke="#bc837a" stroke-width="1.51"/><path d="M1579,824L1589,709L1515,826Z" fill="#707486" stroke="#707486" stroke-width="1.51"/><path d="M1515,826L1589,709L1445,725Z" fill="#78778c" stroke="#78778c" stroke-width="1.51"/><path d="M1467,983L1504,912L1329,886Z" fill="#8f6289" stroke="#8f6289" stroke-width="1.51"/><path d="M129,75L188,215L244,87Z" fill="#d88b53" stroke="#d88b53" stroke-width="1.51"/><path d="M89,369L8,471L64,512Z" fill="#ad876b" stroke="#ad876b" stroke-width="1.51"/><path d="M129,75L244,87L242,31Z" fill="#d37e50" stroke="#d37e50" stroke-width="1.51"/><path d="M72,188L34,297L188,215Z" fill="#e6ae76" stroke="#e6ae76" stroke-width="1.51"/><path d="M-29,413L8,471L89,369Z" fill="#b99178" stroke="#b99178" stroke-width="1.51"/><path d="M180,-43L129,75L242,31Z" fill="#d27754" stroke="#d27754" stroke-width="1.51"/><path d="M1409,1033L1467,983L1329,886Z" fill="#8b698b" stroke="#8b698b" stroke-width="1.51"/><path d="M30,564L9,671L127,674Z" fill="#c29993" stroke="#c29993" stroke-width="1.51"/><path d="M17,922L93,995L121,841Z" fill="#b16a73" stroke="#b16a73" stroke-width="1.51"/><path d="M93,995L190,1040L199,940Z" fill="#b87b77" stroke="#b87b77" stroke-width="1.51"/><path d="M-28,628L9,671L30,564Z" fill="#c89d9e" stroke="#c89d9e" stroke-width="1.51"/><path d="M93,995L199,940L121,841Z" fill="#b26b6e" stroke="#b26b6e" stroke-width="1.51"/><path d="M129,75L89,105L188,215Z" fill="#d98a57" stroke="#d98a57" stroke-width="1.51"/><path d="M-73,196L-49,308L34,297Z" fill="#e7b08d" stroke="#e7b08d" stroke-width="1.51"/><path d="M68,2L89,105L129,75Z" fill="#d27455" stroke="#d27455" stroke-width="1.51"/><path d="M1582,911L1515,826L1504,912Z" fill="#846e8b" stroke="#846e8b" stroke-width="1.51"/><path d="M1582,911L1579,824L1515,826Z" fill="#796f87" stroke="#796f87" stroke-width="1.51"/><path d="M1515,49L1436,-50L1417,74Z" fill="#b76d77" stroke="#b76d77" stroke-width="1.51"/><path d="M1405,-34L1352,-135L1277,-127Z" fill="#a8717b" stroke="#a8717b" stroke-width="1.51"/><path d="M1277,-127L1352,-135L892,-144Z" fill="#aa8689" stroke="#aa8689" stroke-width="1.51"/><path d="M1436,-50L1352,-135L1405,-34Z" fill="#b2707e" stroke="#b2707e" stroke-width="1.51"/><path d="M314,-91L180,-43L242,31Z" fill="#df8b68" stroke="#df8b68" stroke-width="1.51"/><path d="M1543,172L1515,49L1417,74Z" fill="#b87973" stroke="#b87973" stroke-width="1.51"/><path d="M1659,190L1599,127L1543,172Z" fill="#caa991" stroke="#caa991" stroke-width="1.51"/><path d="M1543,172L1599,127L1515,49Z" fill="#be8b7f" stroke="#be8b7f" stroke-width="1.51"/><path d="M1587,466L1650,480L1560,423Z" fill="#8f9894" stroke="#8f9894" stroke-width="1.51"/><path d="M1596,615L1650,480L1587,466Z" fill="#a2aeb7" stroke="#a2aeb7" stroke-width="1.51"/><path d="M1711,556L1650,480L1596,615Z" fill="#acbbc8" stroke="#acbbc8" stroke-width="1.51"/><path d="M1657,716L1596,615L1589,709Z" fill="#8f9daf" stroke="#8f9daf" stroke-width="1.51"/><path d="M-115,455L-28,628L30,564Z" fill="#d4aaa7" stroke="#d4aaa7" stroke-width="1.51"/><path d="M34,297L-29,413L89,369Z" fill="#cca28a" stroke="#cca28a" stroke-width="1.51"/><path d="M-49,308L-29,413L34,297Z" fill="#d6a996" stroke="#d6a996" stroke-width="1.51"/><path d="M8,848L121,841L96,779Z" fill="#8d635d" stroke="#8d635d" stroke-width="1.51"/><path d="M-115,455L30,564L8,471Z" fill="#c1988b" stroke="#c1988b" stroke-width="1.51"/><path d="M1707,433L1649,317L1560,423Z" fill="#a0aca8" stroke="#a0aca8" stroke-width="1.51"/><path d="M1659,190L1543,172L1564,273Z" fill="#d0bd9e" stroke="#d0bd9e" stroke-width="1.51"/><path d="M1515,49L1517,-81L1436,-50Z" fill="#bb7283" stroke="#bb7283" stroke-width="1.51"/><path d="M1579,824L1657,716L1589,709Z" fill="#7b8698" stroke="#7b8698" stroke-width="1.51"/><path d="M1650,480L1707,433L1560,423Z" fill="#8f9c96" stroke="#8f9c96" stroke-width="1.51"/><path d="M1695,778L1657,716L1579,824Z" fill="#748293" stroke="#748293" stroke-width="1.51"/><path d="M1532,1024L1582,911L1504,912Z" fill="#99779a" stroke="#99779a" stroke-width="1.51"/><path d="M1532,1024L1504,912L1467,983Z" fill="#98769a" stroke="#98769a" stroke-width="1.51"/><path d="M190,1040L133,1060L261,1083Z" fill="#bf9082" stroke="#bf9082" stroke-width="1.51"/><path d="M8,848L96,779L9,671Z" fill="#99716d" stroke="#99716d" stroke-width="1.51"/><path d="M-150,744L8,848L9,671Z" fill="#a1787a" stroke="#a1787a" stroke-width="1.51"/><path d="M1173,1151L1414,1141L1286,1082Z" fill="#71778a" stroke="#71778a" stroke-width="1.51"/><path d="M1519,1091L1532,1024L1467,983Z" fill="#9c86a5" stroke="#9c86a5" stroke-width="1.51"/><path d="M93,995L133,1060L190,1040Z" fill="#bd847f" stroke="#bd847f" stroke-width="1.51"/><path d="M-29,413L-115,455L8,471Z" fill="#b38d76" stroke="#b38d76" stroke-width="1.51"/><path d="M-73,196L34,297L72,188Z" fill="#ebae7f" stroke="#ebae7f" stroke-width="1.51"/><path d="M7,99L72,188L89,105Z" fill="#dc8960" stroke="#dc8960" stroke-width="1.51"/><path d="M180,-43L68,2L129,75Z" fill="#d4745a" stroke="#d4745a" stroke-width="1.51"/><path d="M314,-91L142,-75L180,-43Z" fill="#df8669" stroke="#df8669" stroke-width="1.51"/><path d="M79,-94L142,-75L314,-91Z" fill="#dd7e66" stroke="#dd7e66" stroke-width="1.51"/><path d="M1519,1091L1467,983L1409,1033Z" fill="#9b80a0" stroke="#9b80a0" stroke-width="1.51"/><path d="M1649,317L1659,190L1564,273Z" fill="#c6c1ad" stroke="#c6c1ad" stroke-width="1.51"/><path d="M1711,556L1707,433L1650,480Z" fill="#9aa7a9" stroke="#9aa7a9" stroke-width="1.51"/><path d="M142,-75L68,2L180,-43Z" fill="#d77462" stroke="#d77462" stroke-width="1.51"/><path d="M1657,716L1711,556L1596,615Z" fill="#9fafc1" stroke="#9fafc1" stroke-width="1.51"/><path d="M93,995L21,1142L133,1060Z" fill="#c08a89" stroke="#c08a89" stroke-width="1.51"/><path d="M8,848L17,922L121,841Z" fill="#a0676b" stroke="#a0676b" stroke-width="1.51"/><path d="M-14,919L17,922L8,848Z" fill="#ab6875" stroke="#ab6875" stroke-width="1.51"/><path d="M68,2L7,99L89,105Z" fill="#d37458" stroke="#d37458" stroke-width="1.51"/><path d="M1579,-9L1517,-81L1515,49Z" fill="#bd7b86" stroke="#bd7b86" stroke-width="1.51"/><path d="M1707,433L1659,190L1649,317Z" fill="#b9c0ba" stroke="#b9c0ba" stroke-width="1.51"/><path d="M1579,-9L1515,49L1648,38Z" fill="#bd8384" stroke="#bd8384" stroke-width="1.51"/><path d="M1436,-50L1517,-81L1352,-135Z" fill="#be7487" stroke="#be7487" stroke-width="1.51"/><path d="M-49,308L-100,410L-29,413Z" fill="#cda38f" stroke="#cda38f" stroke-width="1.51"/><path d="M-108,921L-14,919L8,848Z" fill="#ad6c7a" stroke="#ad6c7a" stroke-width="1.51"/><path d="M-163,330L-100,410L-49,308Z" fill="#dab19e" stroke="#dab19e" stroke-width="1.51"/><path d="M1532,1024L1560,1056L1582,911Z" fill="#9c85a5" stroke="#9c85a5" stroke-width="1.51"/><path d="M1682,874L1695,778L1579,824Z" fill="#6f7788" stroke="#6f7788" stroke-width="1.51"/><path d="M1414,1141L1519,1091L1409,1033Z" fill="#9b82a2" stroke="#9b82a2" stroke-width="1.51"/><path d="M1648,38L1515,49L1599,127Z" fill="#bc847e" stroke="#bc847e" stroke-width="1.51"/><path d="M1657,716L1695,778L1711,556Z" fill="#8d9eb0" stroke="#8d9eb0" stroke-width="1.51"/><path d="M1682,874L1579,824L1582,911Z" fill="#807991" stroke="#807991" stroke-width="1.51"/><path d="M17,922L-65,991L93,995Z" fill="#bb7482" stroke="#bb7482" stroke-width="1.51"/><path d="M-113,639L9,671L-28,628Z" fill="#c39a9c" stroke="#c39a9c" stroke-width="1.51"/><path d="M-100,410L-115,455L-29,413Z" fill="#bd9781" stroke="#bd9781" stroke-width="1.51"/><path d="M1519,1091L1560,1056L1532,1024Z" fill="#9d90ac" stroke="#9d90ac" stroke-width="1.51"/><path d="M-115,455L-113,639L-28,628Z" fill="#dfb5b7" stroke="#dfb5b7" stroke-width="1.51"/><path d="M7,99L-73,196L72,188Z" fill="#e4986e" stroke="#e4986e" stroke-width="1.51"/><path d="M-100,410L-163,330L-115,455Z" fill="#cba490" stroke="#cba490" stroke-width="1.51"/><path d="M-140,230L-73,196L-93,79Z" fill="#f0a77d" stroke="#f0a77d" stroke-width="1.51"/><path d="M-80,-7L-93,79L7,99Z" fill="#db7967" stroke="#db7967" stroke-width="1.51"/><path d="M142,-75L79,-94L68,2Z" fill="#db7769" stroke="#db7769" stroke-width="1.51"/><path d="M485,-134L79,-94L314,-91Z" fill="#f1a77d" stroke="#f1a77d" stroke-width="1.51"/><path d="M1720,1014L1682,874L1582,911Z" fill="#9a81a2" stroke="#9a81a2" stroke-width="1.51"/><path d="M1670,80L1648,38L1599,127Z" fill="#bd8a80" stroke="#bd8a80" stroke-width="1.51"/><path d="M1579,-9L1575,-96L1517,-81Z" fill="#c38391" stroke="#c38391" stroke-width="1.51"/><path d="M1670,80L1599,127L1659,190Z" fill="#c5a08c" stroke="#c5a08c" stroke-width="1.51"/><path d="M1707,433L1670,80L1659,190Z" fill="#ccc3a8" stroke="#ccc3a8" stroke-width="1.51"/><path d="M1665,-144L1575,-96L1579,-9Z" fill="#c88f9a" stroke="#c88f9a" stroke-width="1.51"/><path d="M1517,-81L1575,-96L1352,-135Z" fill="#c57d8f" stroke="#c57d8f" stroke-width="1.51"/><path d="M-164,767L-150,744L-113,639Z" fill="#b48f93" stroke="#b48f93" stroke-width="1.51"/><path d="M-73,196L-140,230L-49,308Z" fill="#f0b88f" stroke="#f0b88f" stroke-width="1.51"/><path d="M-93,79L-73,196L7,99Z" fill="#e18b6b" stroke="#e18b6b" stroke-width="1.51"/><path d="M-140,230L-163,330L-49,308Z" fill="#eaba9d" stroke="#eaba9d" stroke-width="1.51"/><path d="M-113,639L-150,744L9,671Z" fill="#ba9395" stroke="#ba9395" stroke-width="1.51"/><path d="M-164,767L-113,639L-115,455Z" fill="#d3acaf" stroke="#d3acaf" stroke-width="1.51"/><path d="M-80,-7L7,99L68,2Z" fill="#d87365" stroke="#d87365" stroke-width="1.51"/><path d="M79,-94L-7,-77L68,2Z" fill="#dd766e" stroke="#dd766e" stroke-width="1.51"/><path d="M-14,919L-65,991L17,922Z" fill="#bb6f82" stroke="#bb6f82" stroke-width="1.51"/><path d="M-108,921L-65,991L-14,919Z" fill="#bf7487" stroke="#bf7487" stroke-width="1.51"/><path d="M-164,767L-108,921L8,848Z" fill="#9f6e75" stroke="#9f6e75" stroke-width="1.51"/><path d="M-150,744L-164,767L8,848Z" fill="#9b7577" stroke="#9b7577" stroke-width="1.51"/><path d="M-163,330L-164,767L-115,455Z" fill="#d3aca4" stroke="#d3aca4" stroke-width="1.51"/><path d="M-96,1063L21,1142L-65,991Z" fill="#c68f98" stroke="#c68f98" stroke-width="1.51"/><path d="M-65,991L21,1142L93,995Z" fill="#c1878f" stroke="#c1878f" stroke-width="1.51"/><path d="M133,1060L21,1142L261,1083Z" fill="#be8a83" stroke="#be8a83" stroke-width="1.51"/><path d="M261,1083L21,1142L424,1090Z" fill="#c49d8a" stroke="#c49d8a" stroke-width="1.51"/><path d="M765,1144L-71,1149L1173,1151Z" fill="#a2aeaa" stroke="#a2aeaa" stroke-width="1.51"/><path d="M-7,-77L-80,-7L68,2Z" fill="#db726f" stroke="#db726f" stroke-width="1.51"/><path d="M-93,79L-115,41L-140,230Z" fill="#e69070" stroke="#e69070" stroke-width="1.51"/><path d="M-80,-7L-115,41L-93,79Z" fill="#e07e6f" stroke="#e07e6f" stroke-width="1.51"/><path d="M-140,230L-155,-131L-163,330Z" fill="#f0a17c" stroke="#f0a17c" stroke-width="1.51"/><path d="M1560,1056L1720,1014L1582,911Z" fill="#9d8fab" stroke="#9d8fab" stroke-width="1.51"/><path d="M1682,874L1720,1014L1695,778Z" fill="#887d97" stroke="#887d97" stroke-width="1.51"/><path d="M1695,778L1720,1014L1711,556Z" fill="#717f8f" stroke="#717f8f" stroke-width="1.51"/><path d="M1709,1106L1720,1014L1560,1056Z" fill="#9f9fb7" stroke="#9f9fb7" stroke-width="1.51"/><path d="M1709,1106L1560,1056L1519,1091Z" fill="#9f9ab3" stroke="#9f9ab3" stroke-width="1.51"/><path d="M-108,921L-131,979L-65,991Z" fill="#c47e8f" stroke="#c47e8f" stroke-width="1.51"/><path d="M-164,767L-131,979L-108,921Z" fill="#b47784" stroke="#b47784" stroke-width="1.51"/><path d="M1648,38L1665,-144L1579,-9Z" fill="#c38b94" stroke="#c38b94" stroke-width="1.51"/><path d="M1575,-96L1665,-144L1352,-135Z" fill="#ca8999" stroke="#ca8999" stroke-width="1.51"/><path d="M1352,-135L1665,-144L892,-144Z" fill="#a3777c" stroke="#a3777c" stroke-width="1.51"/><path d="M1670,80L1665,-144L1648,38Z" fill="#c18a8f" stroke="#c18a8f" stroke-width="1.51"/><path d="M1707,433L1665,-144L1670,80Z" fill="#c39b89" stroke="#c39b89" stroke-width="1.51"/><path d="M-131,979L-96,1063L-65,991Z" fill="#c78997" stroke="#c78997" stroke-width="1.51"/><path d="M1414,1141L1709,1106L1519,1091Z" fill="#9d92ad" stroke="#9d92ad" stroke-width="1.51"/><path d="M-131,979L-71,1149L-96,1063Z" fill="#cb959e" stroke="#cb959e" stroke-width="1.51"/><path d="M-96,1063L-71,1149L21,1142Z" fill="#c68f98" stroke="#c68f98" stroke-width="1.51"/><path d="M21,1142L-71,1149L765,1144Z" fill="#c59e8b" stroke="#c59e8b" stroke-width="1.51"/><path d="M-80,-7L-155,-131L-115,41Z" fill="#e67f7d" stroke="#e67f7d" stroke-width="1.51"/><path d="M-115,41L-155,-131L-140,230Z" fill="#e48372" stroke="#e48372" stroke-width="1.51"/><path d="M-7,-77L-155,-131L-80,-7Z" fill="#e8827f" stroke="#e8827f" stroke-width="1.51"/><path d="M79,-94L-155,-131L-7,-77Z" fill="#e7807e" stroke="#e7807e" stroke-width="1.51"/><path d="M485,-134L-155,-131L79,-94Z" fill="#e3826f" stroke="#e3826f" stroke-width="1.51"/><path d="M892,-144L-155,-131L485,-134Z" fill="#f8c097" stroke="#f8c097" stroke-width="1.51"/></svg>